<svg xmlns="http://www.w3.org/2000/svg" viewBox="0 0 217 48">
  <path fill="#15284C" d="M88.9 6.45a6.46 6.46 0 0 1 3.33.8 5.02 5.02 0 0 1 2.04 2.37c.5 1.23.73 2.54.7 3.86v10.54h-5.3V13.84a4.5 4.5 0 0 0-.3-1.74 2.1 2.1 0 0 0-.9-1.02 2.77 2.77 0 0 0-1.5-.31c-.44 0-.87.06-1.28.2A3.13 3.13 0 0 0 84 12.52c-.18.37-.26.76-.26 1.16V24.1h-5.26V0h5.26v8.91c.1-.1.18-.22.25-.33a7.53 7.53 0 0 1 2.25-1.55 6.95 6.95 0 0 1 2.65-.58Zm-21.3 7.92c.07-.33.16-.7.29-1.12l3.4-11.96h5.56L69.89 24.1h-4.21l-5.11-12.3-4.74 12.3h-4.41l-6.9-22.8h5.7l3.45 12 .34 1.39.06.25.09.37c.1.4.2.81.2 1.2l.05-.3c.06-.39.1-.71.22-1.16l.04-.15c.14-.52.28-1.05.47-1.6l3.4-9.13h4.57l3.33 9.06.1.3c.2.65.4 1.24.55 1.79.1.34.17.69.23 1.04v-.5a5 5 0 0 1 .19-1.15l.08-.34ZM19.42 1.3H0l2.38 4.9h4.46v17.9h5.57V6.2h7V1.3Zm10.26 5.8c1 .42 1.9 1.05 2.65 1.83A8.3 8.3 0 0 1 34 11.69a9.1 9.1 0 0 1 .52 3.5v1.4H22.57c.09.37.22.72.4 1.04a4.2 4.2 0 0 0 1.8 1.65c.86.42 1.8.62 2.77.59.67 0 1.34-.1 1.98-.32a7.63 7.63 0 0 0 1.89-1.1l2.5 3.44c-.64.57-1.34 1.05-2.1 1.44a10.93 10.93 0 0 1-4.84 1.1c-1.75.05-3.48-.34-5.03-1.14a8.39 8.39 0 0 1-3.3-3.17 8.73 8.73 0 0 1-1.2-4.57 9.74 9.74 0 0 1 .67-3.65 8.19 8.19 0 0 1 4.65-4.78 9.36 9.36 0 0 1 6.92-.02Zm-5.49 4.23a3.3 3.3 0 0 0-1.36 1.46c-.08.2-.14.39-.2.59h6.93a2.72 2.72 0 0 0-1.62-2.2 4.23 4.23 0 0 0-3.74.15Zm173.73-4.78a5.52 5.52 0 0 0-3.68.54 6.63 6.63 0 0 0-2.38 2.18l-.17.25V6.8h-5.1v17.3h5.27v-8.66a3.7 3.7 0 0 1 .93-2.48c.3-.3.65-.54 1.05-.69.43-.17.88-.25 1.34-.25a4.99 4.99 0 0 1 2.23.52l1.46-5.76-.95-.23ZM177.2 1.67c1.4.58 2.66 1.43 3.72 2.5a10.83 10.83 0 0 1 2.53 3.64c.6 1.5.9 3.1.88 4.71.03 1.64-.27 3.27-.88 4.8a11.34 11.34 0 0 1-6.2 6.2c-1.51.6-3.12.9-4.74.88a12.7 12.7 0 0 1-4.8-.88 11.44 11.44 0 0 1-7.2-11 12.3 12.3 0 0 1 .85-4.59 11.18 11.18 0 0 1 6.3-6.26 13.1 13.1 0 0 1 9.54 0Zm-.32 15.67a6.25 6.25 0 0 0 1.3-2.08c.33-.88.48-1.8.47-2.74a7.5 7.5 0 0 0-.4-2.57 6.36 6.36 0 0 0-1.3-2.08 5.45 5.45 0 0 0-1.98-1.38 5.95 5.95 0 0 0-2.46-.5 6 6 0 0 0-2.48.44 5.7 5.7 0 0 0-3.4 3.46 7.48 7.48 0 0 0 .11 5.39 6.02 6.02 0 0 0 5.76 3.94 5.77 5.77 0 0 0 4.38-1.88ZM211.74 6.8v2.1a6.3 6.3 0 0 0-1.07-1.17 6.33 6.33 0 0 0-1.83-1 7.57 7.57 0 0 0-6.31.81 7.76 7.76 0 0 0-2.78 3.18 9.99 9.99 0 0 0-1.03 4.65 9.98 9.98 0 0 0 1.03 4.61 8.01 8.01 0 0 0 2.74 3.2 6.9 6.9 0 0 0 3.93 1.14 6.65 6.65 0 0 0 4.12-1.33c.42-.3.8-.65 1.12-1.05v2.1h5.32V6.8h-5.24Zm-1.8 12.65c-.64.39-1.37.58-2.11.56a3.64 3.64 0 0 1-3.4-2.08 5.36 5.36 0 0 1-.51-2.42c-.02-.84.15-1.67.5-2.42a3.64 3.64 0 0 1 3.47-2.17 3.69 3.69 0 0 1 3.5 2.16c.33.77.5 1.6.48 2.43.02.83-.15 1.65-.49 2.42a3.81 3.81 0 0 1-1.45 1.52ZM120.75 2.44h5.26V6.8h3.37v4.57h-3.37V24.1h-5.26V11.37h-3.09V6.8h3.1V2.44ZM110.3 8.97a5.75 5.75 0 0 0-2.9-2.17 7.57 7.57 0 0 0-6.32.82 7.76 7.76 0 0 0-2.77 3.17 10 10 0 0 0-1.03 4.65 10 10 0 0 0 1.03 4.62 8 8 0 0 0 2.67 3.19 6.88 6.88 0 0 0 3.91 1.15 6.7 6.7 0 0 0 4.3-1.34c.41-.3.78-.65 1.1-1.04v2.08h5.33V6.8h-5.32v2.17Zm-1.81 10.44a3.8 3.8 0 0 1-2.1.56 3.64 3.64 0 0 1-3.41-2.08 5.35 5.35 0 0 1-.5-2.43c0-.85.21-1.68.6-2.44a3.64 3.64 0 0 1 3.47-2.17 3.8 3.8 0 0 1 2.1.57c.61.4 1.1.95 1.4 1.6.33.77.5 1.6.48 2.42.02.84-.14 1.66-.48 2.42-.35.67-.9 1.23-1.56 1.6v-.05Zm33.91-1.09c.16-.37.24-.78.23-1.19V6.8H148v17.3h-4.94l-.36-2.27c-.12.2-.25.38-.4.54a6.6 6.6 0 0 1-8.12 1.28 5.48 5.48 0 0 1-2.1-2.4 8.55 8.55 0 0 1-.74-3.76V6.8h5.28v9.9c-.03.64.08 1.28.33 1.87a2.73 2.73 0 0 0 2.57 1.57c.43 0 .86-.08 1.26-.23.37-.14.7-.35 1-.63.26-.27.48-.6.62-.96Z"/>
  <path fill="#0C818F" d="M39 32.58h2.49V47.3H39V32.58Zm-5.72 4.9c.3.25.54.53.74.86v-1.46h2.5V47.3H34v-1.5c-.24.32-.52.6-.84.83a4.55 4.55 0 0 1-2.65.86c-.85 0-1.68-.24-2.38-.71a5.13 5.13 0 0 1-1.7-1.94 6.22 6.22 0 0 1-.64-2.82c-.02-.97.2-1.93.63-2.8a4.57 4.57 0 0 1 4.23-2.63 4.11 4.11 0 0 1 2.63.88Zm-2.1 7.85c.54.02 1.07-.13 1.53-.42.4-.28.73-.65.95-1.08a3.98 3.98 0 0 0 .08-3.49 2.74 2.74 0 0 0-2.56-1.56 2.67 2.67 0 0 0-1.52.41c-.44.28-.8.68-1 1.15a3.8 3.8 0 0 0-.36 1.7c-.01.59.11 1.18.35 1.72a2.7 2.7 0 0 0 2.53 1.57Zm28.38-8.24a3.81 3.81 0 0 0-2.1-.48c-.57-.01-1.13.1-1.65.35-.52.22-1 .54-1.39.94-.11.13-.22.27-.31.42v-5.74h-2.36V47.3h2.46v-6.26c0-.3.06-.59.2-.86.12-.27.3-.5.52-.7a2.52 2.52 0 0 1 1.77-.65c.38-.03.77.05 1.11.23.32.16.56.44.7.77.15.42.22.87.2 1.31v6.27h2.49V40.9a6.21 6.21 0 0 0-.42-2.4 2.9 2.9 0 0 0-1.22-1.41ZM45.3 34.14h2.46v2.67h2.3v2.28h-2.3v8.22h-2.47V39.1h-2.08v-2.3h2.08v-2.67Zm151.1 13.19c-.45-.45-.87-.95-1.24-1.48a5.91 5.91 0 0 1-.56-1.36 5.78 5.78 0 0 1 0-1V32.58h-2.57v5.5a4.7 4.7 0 0 0-3.34-1.4 4.82 4.82 0 0 0-4.27 2.65 6.04 6.04 0 0 0-.64 2.8c-.02.98.2 1.95.66 2.82a4.75 4.75 0 0 0 6.9 1.8c.29-.23.54-.52.73-.84v1.38l4.34.04ZM190.7 45c-.45.3-.99.45-1.53.44a2.65 2.65 0 0 1-1.52-.44c-.45-.3-.8-.7-1.05-1.18a4.44 4.44 0 0 1 0-3.49c.23-.5.6-.91 1.05-1.21a3 3 0 0 1 3.06 0c.44.3.8.72 1.03 1.21a4.43 4.43 0 0 1 0 3.49c-.24.47-.6.88-1.03 1.18ZM3.2 39.15h6.4v-5.78h2.6v13.94H9.6v-5.74H3.2v5.74H.59V33.37h2.6v5.78ZM23 38.07a4.92 4.92 0 0 0-3.52-1.49 5.05 5.05 0 0 0-4.92 3.32c-.27.72-.4 1.49-.4 2.26-.05.95.14 1.9.57 2.75a5 5 0 0 0 2.1 1.9 6.36 6.36 0 0 0 7.13-.9l-1.24-1.69c-.4.36-.84.64-1.32.86-.44.16-.9.24-1.37.23a4.11 4.11 0 0 1-1.87-.4c-.54-.22-1-.6-1.33-1.08-.18-.36-.3-.74-.36-1.13h7.79v-.96c.01-.71-.1-1.42-.34-2.09a4.62 4.62 0 0 0-.93-1.58Zm-5.18 1.06a3.37 3.37 0 0 1 2.84-.1c.34.17.64.42.86.73.23.31.37.69.4 1.08v.1h-5.34c.05-.25.14-.5.25-.72.2-.46.55-.84.99-1.09Zm120.14-2.15a5 5 0 0 1 1.56 1.09c.47.44.84.98 1.1 1.58.23.67.34 1.38.33 2.09v.88h-7.8c.05.39.17.77.35 1.12.3.5.73.9 1.25 1.17.57.28 1.2.42 1.85.4.46 0 .93-.07 1.36-.23.5-.21.95-.5 1.35-.86l1.22 1.7a5.9 5.9 0 0 1-2.7 1.4 6.36 6.36 0 0 1-4.43-.51 5.14 5.14 0 0 1-2-1.9 5.47 5.47 0 0 1-.7-2.75 5.9 5.9 0 0 1 1.5-4.01 5.06 5.06 0 0 1 3.8-1.57c.68 0 1.35.13 1.96.4Zm-1.95 1.77a3.43 3.43 0 0 0-1.66.38c-.45.25-.8.63-1.01 1.09-.11.23-.19.47-.24.73h5.35v-.1a2.25 2.25 0 0 0-1.26-1.82 2.5 2.5 0 0 0-1.18-.28Zm22-6.17h-2.48V47.3h2.48V32.58Zm-78.47.82h2.5v13.9h-2.12l-7.57-9.93c0 .12-.02.21-.03.3-.03.16-.05.32.03.66.12.52.12.98.12 1.35v7.64H69.9V33.4h2.35l7.3 10.16V33.4Zm88.51 4.94a3.54 3.54 0 0 0-1.9-1.5 4.11 4.11 0 0 0-1.47-.23 4.57 4.57 0 0 0-4.23 2.62 6.02 6.02 0 0 0-.63 2.8c-.01.98.2 1.94.63 2.82.4.78.98 1.45 1.7 1.94.7.47 1.54.72 2.38.7a4.66 4.66 0 0 0 2.66-.85c.32-.23.6-.51.84-.83v1.5h2.52V36.88h-2.5v1.46Zm-1.33 6.57a2.96 2.96 0 0 1-3.03 0 2.7 2.7 0 0 1-1-1.15 3.81 3.81 0 0 1-.37-1.73 3.8 3.8 0 0 1 .36-1.69c.21-.47.57-.87 1.01-1.15a2.97 2.97 0 0 1 3.03 0c.46.28.82.68 1.05 1.15a4 4 0 0 1 .36 1.7c0 .59-.11 1.18-.36 1.72-.24.47-.6.87-1.05 1.15Zm-16.92-7.43c.3.25.56.53.76.86v-1.46h2.49V47.3h-2.5v-1.5c-.26.31-.55.6-.87.83a4.55 4.55 0 0 1-2.65.86c-.85 0-1.67-.24-2.38-.71a5.5 5.5 0 0 1-2.33-4.76c-.02-.97.2-1.93.63-2.8a4.63 4.63 0 0 1 4.23-2.63 4.11 4.11 0 0 1 2.63.88Zm-2.09 7.85a2.8 2.8 0 0 0 2.53-1.5 3.8 3.8 0 0 0 .37-1.74c.01-.58-.1-1.16-.36-1.69a2.74 2.74 0 0 0-2.56-1.56c-.53 0-1.06.14-1.52.42-.44.28-.79.68-1.01 1.14a4 4 0 0 0-.36 1.7c0 .59.12 1.18.36 1.73a3 3 0 0 0 1.03 1.08c.46.28.99.42 1.52.42Zm-18.9-10.16v-1.8h-10.33v2.44h6.8l-7.32 9.69v1.81h11.06v-2.4h-7.53l7.32-9.74Zm50 1.43c.64.03 1.26.2 1.82.49.55.32.98.82 1.22 1.41.3.77.44 1.58.42 2.4v6.45h-2.48V41.1a3.6 3.6 0 0 0-.21-1.31 1.5 1.5 0 0 0-.68-.77 2.12 2.12 0 0 0-1.13-.23 2.52 2.52 0 0 0-1.77.64 2.1 2.1 0 0 0-.72 1.57v6.26h-2.46V36.8h2.42v1.53l.34-.44a4.51 4.51 0 0 1 3.23-1.3Zm-85.53 1.47a4.84 4.84 0 0 0-3.5-1.49 5.05 5.05 0 0 0-4.92 3.32 5.9 5.9 0 0 0-.4 2.26 5.07 5.07 0 0 0 2.7 4.65 6.52 6.52 0 0 0 7.13-.9l-1.22-1.69a3.7 3.7 0 0 1-2.71 1.09 4.02 4.02 0 0 1-1.86-.4 2.98 2.98 0 0 1-1.22-1.17 3.4 3.4 0 0 1-.35-1.12h7.74v-.88a5.51 5.51 0 0 0-.32-2.09 5 5 0 0 0-1.07-1.58Zm-5.15 1.06a3.32 3.32 0 0 1 2.81-.1 2.18 2.18 0 0 1 1.29 1.81v.1h-5.35c.04-.25.12-.5.24-.72a2.4 2.4 0 0 1 1-1.09Zm15.73-.73 2.34 5.2 2.14-6.79h2.53l-3.56 10.5h-1.77l-2.5-5.82-2.4 5.82H98.9l-3.54-10.5 2.53-.02 2.16 6.89 2.32-5.28h1.5Z"/>
</svg>